{
    "asset": {
        "version": "2.0",
        "generator": "Open Asset Import Library (assimp v5.0.639693989)"
    },
    "accessors": [
        {
            "bufferView": 0,
            "byteOffset": 0,
            "componentType": 5126,
            "count": 152651,
            "type": "VEC3",
            "max": [
                1.6034183502197266,
                6.065681457519531,
                6.094872951507568
            ],
            "min": [
                -3.9770212173461916,
                2.092325448989868,
                1.1419219970703126
            ]
        },
        {
            "bufferView": 1,
            "byteOffset": 0,
            "componentType": 5126,
            "count": 152651,
            "type": "VEC3",
            "max": [
                0.9999632835388184,
                0.9999484419822693,
                0.999981701374054
            ],
            "min": [
                -0.9999727010726929,
                -0.9999485015869141,
                -0.9999155402183533
            ]
        },
        {
            "bufferView": 2,
            "byteOffset": 0,
            "componentType": 5126,
            "count": 152651,
            "type": "VEC4",
            "max": [
                1.0,
                1.0,
                1.0,
                1.0
            ],
            "min": [
                0.0,
                0.0,
                0.0,
                1.0
            ]
        }
    ],
    "buffers": [
        {
            "byteLength": 6106040,
            "uri": "j9mtu9wzcb3s.bin"
        }
    ],
    "bufferViews": [
        {
            "buffer": 0,
            "byteOffset": 0,
            "byteLength": 1831812,
            "target": 34962
        },
        {
            "buffer": 0,
            "byteOffset": 1831812,
            "byteLength": 1831812,
            "target": 34962
        },
        {
            "buffer": 0,
            "byteOffset": 3663624,
            "byteLength": 2442416,
            "target": 34962
        }
    ],
    "materials": [
        {
            "name": "material",
            "pbrMetallicRoughness": {
                "metallicFactor": 0.0
            }
        }
    ],
    "meshes": [
        {
            "primitives": [
                {
                    "mode": 0,
                    "material": 0,
                    "attributes": {
                        "POSITION": 0,
                        "NORMAL": 1,
                        "COLOR_0": 2
                    }
                }
            ]
        }
    ],
    "nodes": [
        {
            "mesh": 0
        }
    ],
    "scenes": [
        {
            "nodes": [
                0
            ]
        }
    ],
    "scene": 0
}